<?xml version="1.0" encoding="UTF-8" standalone="no"?>
<!-- Created with Inkscape (http://www.inkscape.org/) -->

<svg
   version="1.1"
   id="svg2"
   width="67.944633"
   height="74.081551"
   viewBox="0 0 67.944633 74.081551"
   xmlns="http://www.w3.org/2000/svg"
   xmlns:svg="http://www.w3.org/2000/svg">
  <defs
     id="defs6" />
  <g
     id="layer1"
     transform="matrix(0.98437664,0,0,0.98952476,0.46758406,-0.34896991)"
     style="stroke-width:0.607935;stroke-dasharray:none">
    <rect
       style="fill:none;fill-opacity:0.978102;stroke:#000000;stroke-width:0.607935;stroke-linecap:round;stroke-linejoin:round;stroke-miterlimit:10.5;stroke-dasharray:none;paint-order:markers fill stroke;stop-color:#000000"
       id="rect1484"
       width="68.41507"
       height="67.388832"
       x="-0.17103755"
       y="7.5256557"
       ry="6.328392" />
    <path
       style="fill:none;fill-opacity:0.978102;stroke:#000000;stroke-width:0.607935;stroke-linecap:round;stroke-linejoin:round;stroke-miterlimit:10.5;stroke-dasharray:none;paint-order:markers fill stroke;stop-color:#000000"
       d="M -0.17103763,18.129989 67.901938,17.958951 h -0.171037"
       id="path1486" />
    <ellipse
       style="fill:none;fill-opacity:0.978102;stroke:#000000;stroke-width:0.607327;stroke-linecap:round;stroke-linejoin:round;stroke-miterlimit:10.5;stroke-dasharray:none;paint-order:markers fill stroke;stop-color:#000000"
       id="path1544"
       cx="33.954479"
       cy="43.890808"
       rx="18.759508"
       ry="18.461451" />
  </g>
  <path
     id="rect1614"
     style="fill:none;fill-opacity:0.978102;stroke:#000000;stroke-width:0.6;stroke-linecap:round;stroke-linejoin:round;stroke-miterlimit:10.5;stroke-dasharray:none;paint-order:markers fill stroke;stop-color:#000000"
     d="m 13.024786,0.30000001 c -1.659138,0 -2.994515,1.58719779 -2.994515,3.55920879 V 5.94318 c 0,0.3705158 0.04901,0.727377 0.136797,1.0628055 4.138664,0.018223 7.835506,0.1439267 11.814572,0.092203 0.146247,0 0.238805,-0.00506 0.32562,0.010659 0.120062,-0.3860952 0.139823,-0.728649 0.139823,-1.1656729 V 3.8592088 c 0,-1.972011 -1.335378,-3.55920879 -2.994515,-3.55920879 z" />
  <ellipse
     style="display:inline;fill:none;fill-opacity:0.978102;stroke:#000000;stroke-width:0.6;stroke-linecap:round;stroke-linejoin:round;stroke-miterlimit:10.5;stroke-dasharray:none;paint-order:markers fill stroke;stop-color:#000000"
     id="path1544-5"
     cx="33.891582"
     cy="43.082066"
     rx="12.531539"
     ry="12.434454" />
</svg>
