<?xml version="1.0" encoding="UTF-8" standalone="no"?>
<!-- Created with Inkscape (http://www.inkscape.org/) -->

<svg
   version="1.1"
   id="svg2"
   width="51.972454"
   height="60.995132"
   viewBox="0 0 51.972454 60.995132"
   xmlns="http://www.w3.org/2000/svg"
   xmlns:svg="http://www.w3.org/2000/svg">
  <defs
     id="defs6" />
  <g
     id="layer1"
     transform="translate(-14.664968,-4.9412522)">
    <path
       style="fill:none;fill-opacity:0.978102;stroke:#000000;stroke-width:0.6;stroke-linecap:round;stroke-linejoin:round;stroke-miterlimit:10.5;stroke-dasharray:none;paint-order:markers fill stroke;stop-color:#000000"
       d="m 23.228897,27.226441 14.69363,-10.696098 c 4.367167,7.554191 14.225451,17.970886 21.60828,27.334474 l -8.391581,4.79994 -6.41009,6.436366 C 37.454348,45.485438 32.215379,35.815109 23.228897,27.226441 Z"
       id="path459" />
    <path
       style="fill:none;fill-opacity:0.978102;stroke:#000000;stroke-width:0.6;stroke-linecap:round;stroke-linejoin:round;stroke-miterlimit:10.5;stroke-dasharray:none;paint-order:markers fill stroke;stop-color:#000000"
       d="m 45.269342,56.181537 17.718791,7.454857 -2.809077,-19.015287 c -7.901742,3.938649 -9.084857,5.040429 -14.909714,11.56043 z"
       id="path461" />
    <path
       style="fill:none;fill-opacity:0.978102;stroke:#000000;stroke-width:0.6;stroke-linecap:round;stroke-linejoin:round;stroke-miterlimit:10.5;stroke-dasharray:none;paint-order:markers fill stroke;stop-color:#000000"
       d="m 31.440043,29.171187 c 4.429697,5.834236 9.685647,13.734101 13.289092,17.502707 l 0.108042,-0.216083"
       id="path463" />
    <path
       style="fill:none;fill-opacity:0.978102;stroke:#000000;stroke-width:0.6;stroke-linecap:round;stroke-linejoin:round;stroke-miterlimit:10.5;stroke-dasharray:none;paint-order:markers fill stroke;stop-color:#000000"
       d="M 20.691158,23.500247 36.033037,12.91219 30.739008,5.2412507 C 22.261338,6.0177656 17.410771,10.537832 14.964963,14.856935 Z"
       id="path465" />
    <path
       style="fill:none;fill-opacity:0.978102;stroke:#000000;stroke-width:0.6;stroke-linecap:round;stroke-linejoin:round;stroke-miterlimit:10.5;stroke-dasharray:none;paint-order:markers fill stroke;stop-color:#000000"
       d="M 66.33742,65.636385 H 15.882086 l 0.216082,-0.108041"
       id="path601" />
    <path
       style="fill:none;fill-opacity:0.978102;stroke:#000000;stroke-width:0.6;stroke-linecap:round;stroke-linejoin:round;stroke-miterlimit:10.5;stroke-dasharray:none;paint-order:markers fill stroke;stop-color:#000000"
       d="m 63.096178,63.528344 0.864331,1.296497"
       id="path715" />
  </g>
</svg>
